<svg t="1691568758137" class="icon" viewBox="0 0 1024 1024" version="1.1" xmlns="http://www.w3.org/2000/svg" p-id="12242" width="200" height="200"><path d="M512 512m-512 0a512 512 0 1 0 1024 0 512 512 0 1 0-1024 0Z" fill="#d1d1d1" p-id="12243"></path><path d="M512 71.24c-243.425 0-440.76 197.335-440.76 440.76S268.575 952.76 512 952.76 952.76 755.425 952.76 512 755.425 71.24 512 71.24z m0.0025 832.76c-216.155 0-392-175.845-392-392S295.8475 120 512.0025 120s392 175.845 392 392-175.8475 392-392 392z" fill="#c1c1c1" p-id="12244"></path></svg>