<?xml version="1.0" standalone="no"?>
<!DOCTYPE svg PUBLIC "-//W3C//DTD SVG 20010904//EN"
 "http://www.w3.org/TR/2001/REC-SVG-20010904/DTD/svg10.dtd">
<svg version="1.0" xmlns="http://www.w3.org/2000/svg"
 width="300.000000pt" height="508.000000pt" viewBox="0 0 300.000000 508.000000"
 preserveAspectRatio="xMidYMid meet">
<metadata>
Created by potrace 1.10, written by Peter Selinger 2001-2011
</metadata>
<g transform="translate(0.000000,508.000000) scale(0.100000,-0.100000)"
fill="#143e37" stroke="none">
<path d="M1370 5035 c-7 -8 -28 -17 -49 -21 -36 -7 -101 -58 -101 -80 0 -7 -7
-14 -15 -17 -24 -10 -48 -79 -35 -100 6 -10 8 -22 5 -27 -4 -6 -2 -10 4 -10
16 0 25 22 27 67 2 47 54 123 86 123 10 0 18 5 18 10 0 6 4 10 9 10 5 0 26 8
47 17 22 9 68 18 104 19 65 3 166 -13 155 -24 -3 -3 -42 -5 -86 -4 -107 1
-144 -13 -42 -16 43 -2 100 -4 126 -5 43 -2 46 -1 30 11 -17 13 -17 14 2 9 11
-3 38 -9 60 -13 22 -4 49 -11 59 -17 19 -9 19 -10 1 -23 -10 -8 -14 -14 -9
-14 6 0 16 6 23 13 10 10 14 9 22 -5 6 -10 16 -18 23 -18 14 0 29 -27 22 -38
-4 -7 12 -25 29 -33 6 -2 9 -10 9 -17 -1 -7 1 -11 4 -7 10 9 91 -166 85 -184
-4 -14 -3 -14 7 -1 10 13 11 11 7 -7 -3 -15 -1 -20 9 -16 12 5 19 -8 15 -29 0
-5 3 -8 9 -8 5 0 10 -6 10 -14 0 -8 7 -17 16 -20 8 -3 12 -10 9 -16 -4 -6 -10
-8 -15 -5 -4 3 -7 -6 -6 -18 0 -13 7 -24 14 -24 7 0 11 6 8 14 -3 7 -2 13 2
13 15 0 40 -66 35 -91 -3 -17 4 -34 22 -54 14 -17 29 -43 32 -58 4 -18 9 -24
13 -16 6 8 11 6 18 -8 7 -13 8 -23 1 -30 -6 -6 -4 -16 6 -29 12 -16 14 -17 15
-2 0 9 -6 19 -12 21 -8 4 -7 6 3 6 9 1 22 -6 30 -15 10 -13 10 -17 -2 -25 -8
-5 -18 -9 -22 -9 -5 0 -6 -4 -2 -9 3 -5 1 -12 -5 -16 -6 -4 -7 -13 -1 -23 6
-11 6 -24 0 -35 -7 -11 -7 -17 0 -17 5 0 11 -7 13 -17 4 -21 62 72 71 113 5
26 2 31 -24 41 -16 6 -32 20 -36 30 -3 10 -11 21 -16 24 -12 8 -37 77 -37 101
0 10 -9 22 -19 28 -12 6 -22 26 -26 50 -4 22 -11 40 -15 40 -5 0 -12 10 -16
23 -4 12 -17 35 -30 50 -13 16 -24 34 -24 40 0 7 -11 25 -25 41 -14 16 -29 44
-34 62 -5 19 -16 41 -25 50 -9 8 -19 27 -23 42 -11 44 -88 142 -112 142 -6 0
-20 9 -32 21 -14 14 -41 24 -83 29 -33 5 -83 15 -111 24 -66 21 -208 22 -225
1z m-170 -185 c0 -5 -5 -10 -11 -10 -5 0 -7 5 -4 10 3 6 8 10 11 10 2 0 4 -4
4 -10z m950 -489 c0 -11 -4 -10 -15 5 -8 10 -14 26 -14 34 0 11 3 10 14 -4 8
-11 15 -27 15 -35z m98 -201 c-11 -41 -28 -54 -28 -21 0 11 6 22 13 25 10 5
10 7 0 12 -20 9 -15 24 6 24 17 0 18 -4 9 -40z"/>
<path d="M1363 4994 c-17 -7 -35 -19 -39 -26 -6 -10 -4 -11 7 0 7 6 20 12 29
12 8 0 24 7 34 15 24 18 12 18 -31 -1z"/>
<path d="M1390 4976 c0 -2 7 -7 16 -10 8 -3 12 -2 9 4 -6 10 -25 14 -25 6z"/>
<path d="M1285 4940 c-3 -5 -1 -10 4 -10 6 0 11 5 11 10 0 6 -2 10 -4 10 -3 0
-8 -4 -11 -10z"/>
<path d="M1237 4900 c-24 -29 -21 -49 4 -23 12 11 20 26 18 32 -3 7 -11 3 -22
-9z"/>
<path d="M1794 4905 c22 -17 40 -20 32 -6 -3 5 -16 11 -28 14 -22 6 -22 5 -4
-8z"/>
<path d="M1855 4829 c-4 -6 -5 -12 -2 -15 2 -3 7 2 10 11 7 17 1 20 -8 4z"/>
<path d="M1125 4784 c-8 -20 -15 -40 -15 -44 0 -4 -6 -13 -14 -19 -8 -7 -17
-24 -21 -39 -3 -15 -20 -55 -36 -90 -16 -34 -29 -67 -29 -73 0 -5 -20 -60 -45
-122 -24 -61 -43 -113 -40 -115 10 -10 25 13 40 63 8 30 20 55 25 55 5 0 7 -7
4 -15 -8 -19 3 -65 15 -65 4 0 8 24 7 54 0 30 -4 52 -8 50 -12 -7 -10 5 12 66
l19 55 0 -47 c1 -27 6 -48 11 -48 6 0 10 23 10 51 0 31 4 48 10 44 15 -9 12 1
-5 18 -13 13 -9 26 30 109 l44 93 -5 -50 c-2 -27 -1 -43 2 -35 4 8 14 30 22
49 12 26 13 36 4 39 -7 2 -10 13 -6 28 10 38 -14 29 -31 -12z"/>
<path d="M1912 4738 c-1 -26 1 -30 9 -15 6 10 6 23 1 33 -7 12 -9 8 -10 -18z"/>
<path d="M1090 4639 c-7 -11 -10 -23 -7 -25 2 -2 9 7 15 21 14 30 7 33 -8 4z"/>
<path d="M808 4273 c-22 -4 -26 -8 -23 -31 2 -15 4 -33 4 -39 1 -7 7 -13 15
-13 8 0 21 -17 29 -38 18 -44 47 -75 47 -49 0 9 -5 19 -10 22 -6 4 -9 14 -8
23 2 9 -2 16 -8 15 -6 -1 -16 9 -22 22 -13 29 -6 32 20 8 13 -11 18 -12 18 -3
0 7 8 19 18 26 16 12 15 13 -5 14 -13 0 -23 6 -23 13 0 6 -5 4 -11 -5 -12 -21
-39 -24 -39 -4 0 15 30 26 73 26 16 0 26 4 22 10 -6 10 -44 11 -97 3z"/>
<path d="M950 4265 c0 -8 4 -15 10 -15 5 0 7 7 4 15 -4 8 -8 15 -10 15 -2 0
-4 -7 -4 -15z"/>
<path d="M890 4160 c0 -5 5 -10 11 -10 5 0 7 5 4 10 -3 6 -8 10 -11 10 -2 0
-4 -4 -4 -10z"/>
<path d="M896 4114 c-3 -9 -5 -37 -5 -62 1 -26 3 -39 6 -29 2 9 8 15 12 13 4
-3 7 18 6 45 0 49 -8 63 -19 33z"/>
<path d="M2167 4113 c-9 -9 -9 -63 1 -63 4 0 7 16 7 35 0 19 0 35 -1 35 0 0
-4 -3 -7 -7z"/>
<path d="M2215 4036 c15 -22 91 -66 114 -66 20 0 111 -34 111 -41 0 -9 -67 -2
-82 8 -5 2 -8 0 -8 -5 0 -5 20 -13 45 -17 41 -6 46 -10 52 -36 3 -18 9 -27 15
-21 5 5 5 20 -1 35 -6 15 -7 27 -2 27 19 0 32 -31 31 -72 -3 -77 0 -191 5
-186 3 2 5 25 6 51 2 50 18 66 20 20 1 -16 1 -32 0 -36 -1 -5 4 -5 10 -2 8 5
10 -9 9 -46 -4 -99 0 -145 15 -165 13 -18 14 -17 6 11 -4 17 -5 41 -1 55 5 21
8 18 19 -28 7 -28 13 -68 13 -88 0 -31 1 -33 13 -17 12 17 14 16 21 -12 4 -17
7 -45 7 -63 0 -25 3 -30 12 -22 9 8 17 2 28 -22 9 -18 13 -34 9 -36 -4 -1 -6
-20 -4 -42 3 -32 7 -38 17 -30 7 6 11 21 8 33 -2 12 7 2 20 -23 14 -25 21 -47
16 -50 -9 -6 -13 -32 -11 -63 3 -28 22 -9 22 21 l1 27 14 -25 c9 -16 13 -41
10 -72 -3 -26 -1 -49 4 -52 5 -3 7 -16 4 -29 -4 -19 -3 -20 7 -4 6 9 8 26 5
37 -5 14 -2 20 9 20 9 0 16 -8 17 -17 4 -98 9 -137 19 -147 10 -8 11 -3 7 24
-3 19 -8 44 -12 55 -3 11 4 2 16 -20 18 -32 23 -59 25 -134 3 -100 14 -140 14
-51 0 66 13 55 29 -25 7 -33 21 -79 32 -103 42 -92 34 -275 -10 -239 -11 8
-13 9 -8 0 4 -7 0 -16 -10 -22 -10 -6 -14 -11 -9 -11 5 0 3 -6 -4 -14 -6 -8
-17 -13 -23 -11 -7 3 -19 0 -27 -5 -13 -9 -13 -11 0 -20 8 -5 13 -10 10 -11
-3 0 -14 -2 -24 -4 -20 -4 -36 -22 -36 -41 0 -16 -30 -26 -31 -11 0 7 -5 -4
-11 -23 -6 -19 -13 -29 -15 -22 -10 27 -29 11 -28 -23 1 -20 -3 -39 -8 -42 -6
-3 -7 -1 -3 5 4 7 4 12 -1 12 -17 0 -29 -16 -31 -40 -3 -54 -11 -68 -34 -62
-11 3 -19 1 -16 -4 3 -5 2 -20 -3 -33 -8 -19 -12 -21 -24 -11 -14 12 -20 7
-16 -14 4 -17 -21 -66 -30 -60 -5 3 -7 11 -3 17 3 7 -1 3 -10 -7 -8 -10 -13
-22 -11 -27 8 -12 -14 -59 -28 -59 -7 0 -19 -20 -26 -44 -9 -31 -17 -43 -27
-39 -8 3 -14 -1 -15 -8 -2 -38 -6 -56 -17 -74 -10 -18 -11 -17 -12 14 0 42
-12 33 -16 -11 -2 -25 -3 -495 -1 -700 0 -15 4 -25 8 -22 5 3 9 38 10 77 l0
72 20 -75 c14 -54 17 -82 10 -102 -5 -14 -8 -28 -5 -30 2 -3 4 -46 5 -96 1
-81 3 -90 16 -77 9 10 12 23 7 37 -8 27 -11 117 -3 112 9 -5 22 -100 24 -174
3 -109 4 -113 20 -107 23 9 27 -8 30 -122 1 -60 7 -116 14 -127 10 -16 11 -14
10 21 0 22 0 51 1 65 3 43 26 -58 24 -107 -1 -24 3 -43 8 -43 5 0 7 -4 3 -9
-3 -5 0 -13 6 -16 7 -5 10 3 9 21 -3 47 1 51 14 14 9 -24 10 -39 3 -48 -7 -9
-6 -11 7 -6 12 4 15 2 10 -9 -4 -10 0 -15 13 -14 21 2 31 -37 13 -57 -8 -11
-7 -18 4 -29 16 -16 11 -27 -11 -27 -8 0 -35 -10 -61 -22 l-47 -23 -865 2
c-811 2 -865 3 -877 19 -7 10 -13 12 -13 6 0 -8 -15 -11 -42 -10 -37 1 -39 2
-11 5 59 7 35 18 -34 16 -110 -4 -112 -4 -83 -13 21 -7 22 -8 4 -9 -11 -1 -25
4 -31 10 -11 11 -52 15 -185 17 -87 2 -87 2 -90 30 -2 15 3 47 11 71 13 42 14
43 26 21 12 -22 13 -22 18 -4 3 10 4 41 3 67 -1 29 3 52 11 59 10 8 13 6 14
-8 1 -11 1 -23 0 -27 -1 -5 3 -6 8 -3 5 4 9 28 8 55 -1 27 0 48 3 46 3 -2 4
11 2 28 -2 18 4 46 12 62 11 21 16 24 16 12 0 -10 4 -16 9 -13 4 3 6 18 3 32
-4 21 -2 25 9 19 11 -7 12 -6 3 6 -13 16 -11 34 10 99 l14 45 -2 -45 c-2 -25
0 -54 5 -65 6 -17 8 -16 10 10 1 17 3 62 4 100 1 39 5 93 9 120 l7 50 -16 -34
c-8 -19 -18 -52 -22 -75 -3 -23 -14 -59 -24 -81 -10 -22 -23 -62 -29 -90 -6
-27 -15 -54 -21 -61 -5 -6 -14 -38 -20 -70 -6 -33 -17 -72 -24 -89 -83 -185
-122 -281 -116 -288 5 -5 80 -10 167 -13 88 -3 197 -8 244 -11 47 -3 500 -7
1008 -10 828 -4 922 -2 922 12 0 10 11 16 33 17 33 1 83 5 104 7 18 2 11 54
-9 69 -10 7 -18 20 -18 28 0 8 -11 27 -24 41 -14 15 -27 37 -31 51 -3 13 -15
33 -26 45 -11 12 -22 33 -25 47 -3 14 -12 41 -19 60 -8 19 -19 60 -25 90 -7
30 -20 73 -30 95 -10 22 -21 69 -25 105 -4 36 -12 74 -18 85 -6 11 -10 23 -9
28 4 13 -26 171 -38 202 -16 43 -30 306 -25 469 4 128 7 145 32 195 16 31 33
61 39 66 7 6 14 22 18 38 4 15 12 27 19 27 6 0 21 19 32 41 10 23 25 44 32 46
7 3 13 11 13 19 0 7 11 21 25 30 14 9 25 22 25 29 0 7 11 24 25 39 14 15 25
32 25 39 1 43 188 248 255 279 24 11 25 15 24 97 0 47 -4 106 -9 131 -15 79
-31 144 -39 165 -5 11 -16 47 -25 80 -21 72 -84 233 -132 331 -19 39 -34 76
-34 82 0 7 -4 12 -10 12 -5 0 -14 19 -21 43 -6 23 -17 49 -25 57 -7 9 -20 36
-29 60 -9 24 -23 52 -31 62 -9 9 -19 39 -22 65 -3 26 -10 51 -16 55 -6 4 -11
13 -11 20 -1 7 -5 12 -10 11 -6 0 -11 22 -12 50 -1 29 -9 71 -17 94 -8 23 -20
79 -27 123 -10 74 -14 82 -38 91 -14 5 -37 15 -51 23 -14 7 -60 22 -104 32
-57 14 -83 25 -93 42 -9 12 -19 22 -24 22 -5 0 -2 -11 6 -24z m-1899 -3963
c-10 -10 -19 5 -10 18 6 11 8 11 12 0 2 -7 1 -15 -2 -18z m2414 12 c0 -8 -7
-15 -15 -15 -26 0 -18 20 13 29 1 1 2 -6 2 -14z m-2023 -41 c-3 -3 -12 -4 -19
-1 -8 3 -5 6 6 6 11 1 17 -2 13 -5z"/>
<path d="M855 4040 c-11 -5 -32 -9 -46 -9 -15 -1 -29 -7 -32 -15 -3 -7 -32
-18 -64 -25 -50 -10 -61 -17 -80 -47 -13 -20 -23 -44 -23 -53 0 -17 -14 -56
-44 -126 -8 -16 -17 -51 -20 -77 -4 -26 -16 -58 -27 -71 -10 -14 -19 -32 -19
-40 0 -8 -8 -25 -18 -38 -10 -13 -25 -46 -32 -72 -7 -27 -19 -51 -26 -54 -14
-5 -23 -25 -31 -63 -2 -13 -8 -27 -12 -30 -4 -3 -33 -59 -63 -125 -69 -151
-76 -164 -93 -195 -8 -14 -15 -35 -15 -47 0 -13 -4 -23 -10 -23 -5 0 -10 -6
-10 -14 0 -7 -7 -27 -15 -42 -8 -16 -15 -39 -15 -50 0 -12 -9 -33 -20 -47 -11
-14 -25 -49 -30 -78 -6 -30 -17 -57 -25 -62 -8 -4 -15 -18 -15 -31 0 -25 -14
-73 -35 -121 -7 -16 -15 -49 -16 -72 -3 -35 2 -48 26 -73 16 -16 35 -30 42
-30 7 0 13 -4 13 -9 0 -4 22 -30 48 -57 26 -27 69 -86 96 -131 26 -46 52 -86
57 -89 5 -3 9 -14 9 -25 0 -10 5 -19 10 -19 6 0 19 -17 28 -38 19 -42 57 -98
84 -125 10 -10 18 -24 18 -32 0 -7 10 -22 23 -32 13 -10 23 -21 23 -25 -1 -4
13 -16 30 -25 73 -42 67 -25 71 -209 2 -93 -1 -212 -6 -264 -5 -56 -5 -96 0
-98 5 -2 9 -8 9 -13 0 -6 -4 -8 -9 -5 -29 19 -57 -317 -28 -353 6 -8 8 -12 2
-9 -6 4 -10 -6 -10 -23 0 -16 3 -29 8 -29 4 0 7 9 7 19 0 11 5 21 11 23 7 2 7
12 0 30 -15 39 -3 276 15 308 14 25 14 24 12 -17 -1 -23 1 -45 5 -49 4 -4 7
17 8 47 2 126 1 528 -1 579 -2 47 -3 51 -10 25 -7 -29 -8 -29 -10 -5 -2 14 -3
31 -3 37 1 7 -3 10 -9 7 -14 -9 -58 24 -52 40 4 10 -3 16 -23 18 -26 3 -28 7
-29 46 -1 47 -7 58 -25 46 -9 -5 -8 -10 5 -20 10 -7 13 -15 7 -18 -5 -4 -19 7
-30 23 -22 31 -27 46 -12 36 6 -3 6 7 0 27 -5 18 -10 35 -10 38 -1 3 -5 -8 -9
-25 l-7 -30 -12 29 c-6 16 -21 41 -32 57 -11 16 -19 37 -18 46 0 10 0 20 -1
23 -1 3 -4 16 -6 29 -6 35 -14 39 -14 8 0 -15 -4 -27 -10 -27 -5 0 -10 12 -10
26 0 14 -4 23 -9 20 -5 -4 -7 3 -4 14 4 16 2 19 -11 14 -15 -6 -21 4 -17 34 1
6 -3 12 -10 12 -7 0 -10 11 -7 29 2 17 1 28 -3 25 -4 -2 -10 2 -12 8 -3 7 -6
4 -7 -7 -1 -20 -1 -20 -18 0 -9 12 -25 24 -34 27 -9 4 -18 19 -20 35 -2 17 -9
28 -18 27 -8 0 -26 10 -40 24 -20 19 -21 23 -6 18 15 -5 17 -3 10 11 -4 10 -8
36 -7 58 1 22 2 73 3 114 1 66 14 111 31 111 3 0 4 -11 1 -25 -2 -15 0 -25 7
-25 12 0 13 5 11 75 -1 29 5 63 14 80 l16 30 1 -30 1 -30 8 30 c4 17 11 37 14
46 4 10 3 20 -2 23 -12 7 -4 44 16 71 13 18 13 17 7 -20 -6 -37 -5 -39 9 -20
9 12 16 42 16 75 0 30 7 66 15 80 l14 25 1 -30 1 -30 13 25 c8 14 11 29 8 35
-7 10 -5 31 4 73 8 38 21 24 19 -20 l-2 -43 12 30 c9 19 10 38 4 53 -12 30
-12 52 0 34 5 -9 10 0 15 27 8 50 26 55 21 6 -2 -19 0 -35 4 -35 4 0 8 17 9
37 2 21 12 47 22 59 11 11 20 27 20 35 0 8 5 20 12 27 8 8 8 15 -1 26 -13 16
-4 43 28 80 9 10 20 37 26 60 6 24 16 42 25 42 8 1 19 2 24 3 5 0 4 7 -2 14
-12 14 -6 52 14 81 11 16 12 14 10 -18 -2 -20 0 -38 4 -41 8 -5 8 -4 14 100 2
44 11 98 19 120 l15 40 -4 -67 c-2 -37 0 -69 5 -72 5 -3 9 14 9 37 1 24 6 56
12 71 6 17 6 25 0 21 -16 -10 -4 70 15 99 10 14 18 26 19 26 1 0 0 -19 -2 -42
-3 -24 -2 -40 2 -37 3 3 6 26 7 51 l2 45 51 10 c30 6 56 7 62 2 6 -5 13 -6 17
-3 3 3 15 0 27 -6 13 -7 20 -7 16 -2 -3 6 0 13 6 16 7 3 4 5 -7 5 -11 -1 -31
-1 -45 0 -24 2 -24 2 -6 16 10 8 22 12 27 10 4 -3 10 -1 14 5 4 6 10 8 15 5 5
-3 14 4 20 15 6 11 9 20 8 19 -2 0 -12 -4 -23 -9z m-445 -719 c-5 -11 -8 -26
-5 -33 3 -8 -3 -22 -14 -32 -19 -17 -19 -17 -14 6 8 37 27 78 36 78 4 0 3 -9
-3 -19z m-337 -873 c-5 -62 -9 -75 -20 -71 -12 5 -14 17 -9 55 7 51 24 104 31
97 2 -3 1 -39 -2 -81z"/>
<path d="M2220 3971 c8 -5 29 -11 45 -15 28 -6 29 -5 11 9 -11 8 -31 15 -45
15 -19 -1 -22 -3 -11 -9z"/>
<path d="M468 3423 c-2 -5 -1 -24 2 -43 l6 -35 5 43 c4 37 -3 56 -13 35z"/>
<path d="M440 3361 c0 -5 5 -13 10 -16 6 -3 10 -2 10 4 0 5 -4 13 -10 16 -5 3
-10 2 -10 -4z"/>
<path d="M2924 2568 c3 -12 5 -33 5 -46 1 -13 5 -21 9 -18 13 8 8 79 -6 84 -8
2 -11 -4 -8 -20z"/>
<path d="M2932 2458 c6 -15 12 -28 14 -28 2 0 3 13 2 28 -1 16 -7 29 -14 29
-9 0 -9 -8 -2 -29z"/>
<path d="M2880 2330 c0 -5 5 -10 11 -10 5 0 7 5 4 10 -3 6 -8 10 -11 10 -2 0
-4 -4 -4 -10z"/>
<path d="M162 2278 c5 -15 28 -18 29 -3 0 6 -7 12 -17 13 -10 3 -15 -1 -12
-10z"/>
<path d="M2790 2240 c0 -5 5 -10 11 -10 5 0 7 5 4 10 -3 6 -8 10 -11 10 -2 0
-4 -4 -4 -10z"/>
<path d="M2630 2036 c0 -9 30 -14 35 -6 4 6 -3 10 -14 10 -12 0 -21 -2 -21 -4z"/>
<path d="M385 1971 c-3 -5 -1 -12 5 -16 5 -3 10 1 10 9 0 18 -6 21 -15 7z"/>
<path d="M2501 1834 c0 -11 3 -14 6 -6 3 7 2 16 -1 19 -3 4 -6 -2 -5 -13z"/>
<path d="M590 1749 c0 -5 5 -7 10 -4 6 3 10 8 10 11 0 2 -4 4 -10 4 -5 0 -10
-5 -10 -11z"/>
<path d="M601 993 c0 -4 4 -17 9 -28 8 -19 9 -19 9 2 1 12 -3 25 -9 28 -5 3
-10 3 -9 -2z"/>
<path d="M531 664 c0 -11 3 -14 6 -6 3 7 2 16 -1 19 -3 4 -6 -2 -5 -13z"/>
<path d="M2455 630 c3 -5 8 -10 11 -10 2 0 4 5 4 10 0 6 -5 10 -11 10 -5 0 -7
-4 -4 -10z"/>
<path d="M2470 563 c0 -4 5 -15 10 -23 8 -13 10 -13 10 2 0 9 -4 20 -10 23 -5
3 -10 3 -10 -2z"/>
<path d="M2490 500 c0 -11 4 -20 9 -20 5 0 7 9 4 20 -3 11 -7 20 -9 20 -2 0
-4 -9 -4 -20z"/>
<path d="M2620 170 c13 -11 25 -20 28 -20 3 0 -3 9 -13 20 -10 11 -23 20 -28
20 -6 0 0 -9 13 -20z"/>
<path d="M824 58 c-3 -5 23 -8 57 -8 34 0 60 3 56 6 -9 9 -108 11 -113 2z"/>
<path d="M1035 60 c-25 -10 220 -18 285 -9 27 4 -13 7 -97 8 -78 0 -147 3
-155 5 -7 3 -22 1 -33 -4z"/>
<path d="M1655 59 c-19 -4 -3 -7 45 -7 76 0 84 4 20 10 -19 2 -48 0 -65 -3z"/>
<path d="M1393 53 c9 -2 25 -2 35 0 9 3 1 5 -18 5 -19 0 -27 -2 -17 -5z"/>
<path d="M1573 53 c9 -2 25 -2 35 0 9 3 1 5 -18 5 -19 0 -27 -2 -17 -5z"/>
<path d="M1798 53 c7 -3 16 -2 19 1 4 3 -2 6 -13 5 -11 0 -14 -3 -6 -6z"/>
<path d="M2058 53 c7 -3 16 -2 19 1 4 3 -2 6 -13 5 -11 0 -14 -3 -6 -6z"/>
</g>
</svg>
