<?xml version="1.0" standalone="no"?>
<!DOCTYPE svg PUBLIC "-//W3C//DTD SVG 20010904//EN"
 "http://www.w3.org/TR/2001/REC-SVG-20010904/DTD/svg10.dtd">
<svg version="1.0" xmlns="http://www.w3.org/2000/svg"
 width="300.000000pt" height="508.000000pt" viewBox="0 0 300.000000 508.000000"
 preserveAspectRatio="xMidYMid meet">
<metadata>
Created by potrace 1.10, written by Peter Selinger 2001-2011
</metadata>
<g transform="translate(0.000000,508.000000) scale(0.100000,-0.100000)"
fill="#143e37" stroke="none">
<path d="M1350 5024 c-93 -35 -141 -91 -229 -267 -39 -78 -80 -173 -92 -212
-23 -76 -81 -216 -105 -252 -11 -18 -24 -23 -54 -23 -29 0 -43 -6 -54 -22 -14
-20 -13 -27 26 -99 22 -42 38 -84 35 -92 -6 -15 -65 -39 -160 -64 -45 -12 -61
-23 -76 -47 -19 -31 -91 -238 -91 -262 0 -13 -44 -107 -188 -404 -46 -96 -91
-193 -98 -214 -8 -22 -18 -44 -23 -50 -5 -6 -19 -38 -32 -71 -12 -33 -25 -64
-29 -70 -4 -5 -11 -26 -15 -45 -4 -19 -14 -46 -22 -58 -8 -13 -21 -47 -30 -75
-8 -29 -21 -61 -29 -72 -8 -11 -14 -27 -14 -36 0 -8 -9 -42 -20 -75 -10 -33
-22 -78 -26 -101 l-6 -41 89 -86 c86 -82 140 -159 254 -361 53 -94 122 -177
201 -241 21 -16 28 -34 34 -80 11 -88 -4 -477 -20 -538 -8 -28 -17 -87 -21
-131 -3 -44 -12 -100 -20 -125 -60 -199 -90 -292 -105 -335 -10 -27 -22 -66
-25 -85 -4 -19 -36 -102 -72 -184 -67 -152 -69 -165 -23 -166 8 -1 56 -2 105
-4 50 -1 180 -8 290 -14 271 -16 1893 -21 1903 -6 10 15 69 34 103 34 25 0 29
4 29 28 0 15 -11 45 -24 67 -94 156 -123 222 -146 325 -7 30 -21 76 -30 101
-10 25 -21 67 -25 95 -3 27 -12 72 -20 99 -7 28 -26 115 -41 195 -26 133 -28
164 -28 390 l-1 245 47 86 c47 86 118 195 170 259 45 54 45 55 62 88 44 85
155 210 246 277 19 14 38 36 41 48 10 38 -22 233 -53 322 -6 17 -19 61 -29 99
-17 64 -34 110 -80 213 -11 23 -19 46 -19 52 0 9 -54 126 -126 276 -13 28 -24
54 -24 59 0 4 -9 20 -19 35 -31 43 -112 318 -126 425 -10 71 -21 95 -52 106
-16 6 -35 14 -43 17 -8 4 -53 18 -100 33 -73 22 -86 30 -95 54 -8 22 -5 37 17
79 42 82 42 82 -7 132 -24 25 -47 56 -51 68 -10 35 -105 230 -119 247 -16 18
-48 75 -109 195 -80 155 -147 221 -241 235 -27 4 -86 17 -129 29 -101 27 -155
26 -236 -5z"/>
</g>
</svg>
